# xmcd
#
# Track frame offsets: 
#        150
#        15512
#        30351
#        43560
#        57577
#        73358
#        89468
#        102958
#        118659
#        129680
#        147003
#        162781
#        177676
#        193071
#        204747
#        218089
#        230908
#        248018
#        263348
#        274486
#
# Disc length: 3852 seconds
#
# Revision: 0
# Processed by: cddbd v1.5.2PL0 Copyright (c) Steve Scherf et al.
# Submitted via: ExactAudioCopy v0.99pb4
#
DISCID=2e0f0a14
DTITLE=Various Artist - 100 Hollandse Hits - CD 3
DYEAR=2010
DGENRE=National Folk
TTITLE0=Kali - Django Wagner
TTITLE1='n Beetje Meer - Jannes
TTITLE2=Met De Vlam in De Pijp - Henk Wijngaard
TTITLE3=Het Bananenlied - Boswachters
TTITLE4=Sierra Madre - Stef Ekkel
TTITLE5=Hemelsblauw - Rob Van Daal
TTITLE6=Jij Bent Veel Te Mooi  - Danny Cardo
TTITLE7=Kleine Zigeunerin - Henk Damen
TTITLE8=Spiegelbeeld - Willeke Alberti
TTITLE9=C'Est La Vie - Rene Riva
TTITLE10=Joana - Ferry de Lits
TTITLE11=We Gaan Naar Links - Ferry Koesterings
TTITLE12=Als Een Komeet - René Becker
TTITLE13=Kom Van Dat Dak Af - Peter Koelewijn
TTITLE14=Pretty Belinda  - Rocky Vosse
TTITLE15=Wij Zijn Twee Vrienden - Dennie Christian
TTITLE16=Verloren Tijd - Rinus Ponsen
TTITLE17=Dans Klein Zigeunermeisje - Helemaal Hollands
TTITLE18=Hup Zei M'n Simmetje - Leo van Helmond
TTITLE19=De Fiets - Henkie
EXTD=
EXTT0=
EXTT1=
EXTT2=
EXTT3=
EXTT4=
EXTT5=
EXTT6=
EXTT7=
EXTT8=
EXTT9=
EXTT10=
EXTT11=
EXTT12=
EXTT13=
EXTT14=
EXTT15=
EXTT16=
EXTT17=
EXTT18=
EXTT19=
PLAYORDER=
